<svg xmlns="http://www.w3.org/2000/svg" fill="none" viewBox="0 0 24 24" id="Sentry-Icon--Streamline-Svg-Logos" height="24" width="24">
  <desc>
    Sentry Icon Streamline Icon: https://streamlinehq.com
  </desc>
  <path fill="#362d59" d="M13.869675 2.703c-0.39755 -0.65981 -1.111625 -1.06323 -1.88195 -1.06323 -0.770325 0 -1.4844 0.40342 -1.88195 1.06323L7.00995 8.005425c4.812525 2.402675 7.9908 7.17635 8.351175 12.54325h-2.17365c-0.3597 -4.60015 -3.1267 -8.666525 -7.273775 -10.689525l-2.865275 4.95425c2.3284 1.04425 3.964975 3.2021 4.342625 5.72585H2.3991475c-0.1202675 -0.0085 -0.22815 -0.07705 -0.286945 -0.1823 -0.058795 -0.105275 -0.060585 -0.233075 -0.00476 -0.33995l1.3832325 -2.352425c-0.468625 -0.391025 -1.0042275 -0.693875 -1.5808375 -0.89395l-1.369125 2.35245c-0.2879075 0.49385 -0.365863 1.082475 -0.21643 1.634225 0.149435 0.55175 0.5137875 1.0206 1.0115575 1.301625 0.324685 0.18295 0.69064 0.2801 1.0633075 0.2823H9.23535c0.25825 -3.18655 -1.16955 -6.27595 -3.7639 -8.144175l1.086825 -1.88195c3.2752 2.249475 5.118025 6.06215 4.84605 10.026125h5.791725c0.274475 -6.00625 -2.6664 -11.705175 -7.72075 -14.96155L11.6725 3.61575c0.1019 -0.17075 0.322375 -0.22745 0.494 -0.127025 0.249375 0.136425 9.54625 16.3589 9.720325 16.5471 0.062425 0.11195 0.060175 0.248725 -0.005925 0.358525 -0.066075 0.109825 -0.185875 0.175875 -0.314 0.173125h-2.23955c0.02825 0.5991 0.02825 1.196625 0 1.792625h2.24895c0.576825 0.003725 1.131175 -0.223425 1.5395 -0.630875 0.408325 -0.407425 0.636675 -0.9613 0.634175 -1.538125 0.000275 -0.3772 -0.10045 -0.7476 -0.291725 -1.072725L13.869675 2.703Z" stroke-width="0.25"></path>
</svg>